<?xml version="1.0" encoding="utf-8"?>
<!-- Generator: Adobe Illustrator 16.0.0, SVG Export Plug-In . SVG Version: 6.00 Build 0)  -->
<!DOCTYPE svg PUBLIC "-//W3C//DTD SVG 1.1//EN" "http://www.w3.org/Graphics/SVG/1.1/DTD/svg11.dtd">
<svg version="1.1" id="Layer_1" xmlns="http://www.w3.org/2000/svg" xmlns:xlink="http://www.w3.org/1999/xlink" x="0px" y="0px"
	 width="432px" height="432px" viewBox="0 0 432 432" enable-background="new 0 0 432 432" xml:space="preserve">
<g>
	<path fill="none" stroke="#010101" stroke-width="8.0008" stroke-miterlimit="10" d="M309.592,241.656
		c0,50.326-40.795,91.122-91.12,91.122c-50.322,0-91.119-40.796-91.119-91.122c0-50.322,40.797-91.119,91.119-91.119
		C268.797,150.537,309.592,191.334,309.592,241.656z"/>
	<path fill="none" stroke="#010101" stroke-width="3.0003" stroke-miterlimit="10" d="M324.602,241.656
		c0,58.61-47.518,106.125-106.13,106.125c-58.613,0-106.127-47.515-106.127-106.125c0-58.614,47.514-106.13,106.127-106.13
		C277.084,135.526,324.602,183.042,324.602,241.656z"/>
</g>
<g>
	<path fill="#EDB077" stroke="#010101" stroke-width="2.0514" stroke-miterlimit="10" d="M154.126,225.024
		c0,0,19.769-72.782,84.468-49.871c64.698,22.917,37.269,90.797,39.525,92.126c2.255,1.326,14.835-1.37,12.588,6.716
		c-2.245,8.089-14.799,29.488-31.886,23.394c0,0-26.97,38.612-65.608,31.869C154.574,322.522,79.096,302.75,154.126,225.024z"/>
	<path fill="none" stroke="#010101" stroke-width="2.0514" stroke-miterlimit="10" d="M181.982,236.708
		c0,0-13.479,15.725-18.421,16.623c-4.943,0.901-12.43,11.469-6.438,15.393"/>
</g>
<g>
	<path fill="none" stroke="#FFFFFF" stroke-width="1.0001" stroke-miterlimit="10" d="M185.057,402.357
		c2.887-19.182,28.69-190.855,28.69-190.855c2.026,0.307-2.088-0.012,0,0c0.174,0-0.173,0,0,0l1.324,194.878l0.727-0.007
		 M215.071,396.061c0-21.07,0-67.079,0-67.079s-0.012,29.537-0.017,52.116 M242.775,385.931
		c-7.957-47.818-29.028-174.429-29.028-174.429c2.089-0.334-2.009,0.652,0,0c0,0,51.094,152.851,60.441,180.83 M144.125,350.049
		c25.536-50.818,69.622-138.547,69.622-138.547c1.882,0.946-2.004-0.646,0,0l-58.875,185.537 M290.182,358.222
		c-25.316-48.599-76.435-146.72-76.435-146.72c1.905-0.98-1.736,1.264,0,0c0,0,101.497,137.146,114.929,155.296 M94.736,331.528
		c37.111-37.435,119.011-120.026,119.011-120.026c1.533,1.519-1.743-1.264,0,0L100.192,369.391 M353.376,348.854L213.747,211.502
		c1.528-1.533-1.26,1.74,0,0c0,0,87.372,62.468,132.783,94.942 M43.194,299.042c21.268-10.917,170.553-87.54,170.553-87.54
		c0.977,1.888-1.269-1.733,0,0c0,0-102.767,75.255-141.956,103.961 M389.288,299.384l-175.541-87.882c0.968-1.897-0.651,2.004,0,0
		c0,0,146.267,46.434,180.287,57.237 M50.901,237.434c53.875-8.581,162.846-25.932,162.846-25.932c0.342,2.079-0.662-1.997,0,0
		c0,0-158.643,51.894-182.092,59.551 M383.318,237.276c-52.444-7.978-169.571-25.774-169.571-25.774c0.334-2.127,0,2.192,0,0
		c0,0,196.603-3.044,196.798-3.044 M21.455,181.205c8.81,1.392,192.292,30.297,192.292,30.297c-0.313,2.045,0-2.12,0,0
		c0,0.089,0-0.095,0,0c0,0-128.477,0.172-176.762,0.234 M407.839,177.935c-0.085,0.02-194.092,33.567-194.092,33.567
		c-0.349-2.086,0.673,1.994,0,0c0,0,118.506-40.262,166.646-56.617 M57.422,131.756c44.292,22.593,156.325,79.746,156.325,79.746
		c-0.955,1.893,0.64-2.016,0,0c0,0-166.277-54.002-184.102-59.792 M387.752,120.112c-10.623,5.584-174.005,91.39-174.005,91.39
		c-0.988-1.886,1.279,1.717,0,0L371.984,93.857 M75.779,73.474c8.447,8.452,137.968,138.028,137.968,138.028
		c-1.515,1.535,1.259-1.751,0,0L55.593,96.461 M346.346,76.432c-25.759,26.236-132.599,135.07-132.599,135.07
		c-1.535-1.516,1.755,1.252,0,0c0,0,73.684-103.075,102.917-143.964 M131.84,51.186c21.374,41.837,81.907,160.316,81.907,160.316
		c-1.893,0.981,1.727-1.276,0,0c0,0-49.266-67.744-83.384-114.653 M288.953,61.531c-24.629,49.102-75.206,149.971-75.206,149.971
		c-1.893-0.945,2.013,0.629,0,0l59.831-187.735 M186.988,44.531c8.561,53.411,26.759,166.971,26.759,166.971
		c-2.088,0.342,2.005-0.669,0,0c0,0-54.853-168.041-60.486-185.302 M240.205,39.106c-7.84,51.072-26.458,172.396-26.458,172.396
		c-2.067-0.311,2.116-0.006,0,0L213.04,14.757"/>
</g>
<radialGradient id="SVGID_1_" cx="206.5654" cy="223.6562" r="82.0898" gradientUnits="userSpaceOnUse">
	<stop  offset="0.1197" style="stop-color:#FFFFFF"/>
	<stop  offset="0.2743" style="stop-color:#FFFFFF;stop-opacity:0.9833"/>
	<stop  offset="0.2809" style="stop-color:#FFFFFF;stop-opacity:0.9826"/>
	<stop  offset="1" style="stop-color:#FFFFFF;stop-opacity:0"/>
</radialGradient>
<path fill="url(#SVGID_1_)" d="M288.655,223.652c0,45.337-36.75,82.094-82.092,82.094c-45.335,0-82.088-36.757-82.088-82.094
	c0-45.331,36.753-82.087,82.088-82.087C251.905,141.565,288.655,178.321,288.655,223.652z"/>
<path fill="none" stroke="#010101" stroke-width="1.0257" stroke-miterlimit="10" d="M180.88,232.643"/>
<path fill="#AD6628" d="M269.386,263.64c0,0-6.736,6.29-8.535,6.742c-1.796,0.448-1.796-3.551-1.796-3.551
	s-6.74,12.085-10.334,12.537c0,0-3.145-2.696-7.188,5.39c0,0,0,10.335-7.19,10.335c0,0-3.145,4.045-8.987,5.838
	c0,0-11.231-0.45-24.708,6.29c0,0-11.23-6.29-9.887-14.828l-0.109-7.142c0,0-16.511-16.214-26.397-13.524
	c0,0,11.231,8.99,13.479,20.222c2.247,11.229-3.593,17.518-13.479,16.617c0,0-16.622-11.676-5.389-17.066l-9.886-5.536
	c0,0-1.348,16.316-14.825,10.475c-13.48-5.835,5.391-22.013,12.582-22.466c0,0,7.649-3.214,15.271-2.69
	c0,0-10.332-7.925-17.523-8.006c0,0-3.593,0.53-5.84,0c-2.247-0.533-2.694-22.998,8.987-26.59l5.389-13.029
	c0,0-9.881,6.741-17.969,9.431c0,0-7.187-2.689-13.029,0.452c0,0,9.886,1.349,4.492,6.738c0,0-16.623,9.439-16.172,21.118
	c0,0-13.479,4.941-12.581,15.276l1.745,12.258c0.606,0.376,1.225,0.78,1.85,1.217c0,0-5.393,2.699-0.9,6.291
	c0,0-1.316-0.023-3.364,0.241c-0.115,0.07-0.239,0.13-0.385,0.18c-5.463,1.79-10.352,8.579-12.018,14.771
	c3.968-0.857,9.156-1.003,15.767,0.536c0,0-17.071,18.419-9.433,34.594c0,0,1.347-13.028,7.638-13.478c0,0-1.582,18.98,5.271,28.75
	c6.737,1.792,12.49,7.04,14.043,13.838c2.29-0.534,4.964-0.705,8.089-0.357c0,0-1.345,8.088-7.637,12.133
	c0,0,30.102-4.045,31.452-15.278c0,0,7.068-1.761,8.612,5.491c7.164-0.808,16.066-3.94,20.222-8.85
	c0.381-0.457,0.837-0.609,1.27-0.563c-0.002-0.041,0-0.078-0.002-0.119l6.015,1.415c0.159-1.105,1.307-2.079,2.526-1.314
	c4.903,3.083,10.944,1.6,15.768,4.199c0.326-0.55,0.751-1.087,1.299-1.604c0,0,5.677,5.679,11.672,5.994
	c0.75,0.037,1.508-0.005,2.259-0.157c0,0-13.931-7.635,1.347-14.821c0,0,11.231,2.243,13.928-13.031c0,0,1.172,1.174,2.522,3.127
	c3.959-6.834,1.449-15.45,5.048-22.305c0.251-0.482,0.624-0.741,1.022-0.826c0.245-5.965,1.355-16.95,6.233-18.415
	c0,0,7.635,5.623,1.797,12.354c0,0,9.887-7.186,6.288-25.152c0,0-0.896-13.931,10.788-18.421c0,0,10.335-9.438,10.78-12.132
	C279.272,267.236,270.737,261.847,269.386,263.64z"/>
<path fill="#ED8A2D" d="M132.278,295.407c0,0-11.31,15.858-3.817,22.6c0,0-0.578-15.327,8.836-20.054L132.278,295.407z"/>
<path fill="#ED8A2D" d="M194.469,302.233c0,0,0.787,24.043,6.629,26.447c0,0-4.044-16.515-0.45-21.46L194.469,302.233z"/>
<path fill="#84481E" d="M243.33,332.83l0.448-8.932c0,0,0-7.243-7.639-9.036c0,0,3.144,17.968-6.29,23.359
	c0,0,1.797-12.126-5.841-11.68c0,0,4.043,8.088,0,8.535c-4.045,0.449-6.738-22.911-13.026-24.489c0,0,4.491,17.299,3.593,20.442
	c0,0-3.593-9.432-11.231-9.878c0,0,9.632,20.664,2.122,26.053c0,0-17.777-20.172-13.936-31.439
	c-1.905,4.049-4.526,12.132-0.563,20.663c0,0-14.664-10.471-12.802-19.969l-3.576,12.221c0,0-17.292-13.001-7.253-20.077
	c0,0-9.09-0.414-12.165-10.65c0,0-0.801,32.632,9.083,36.677c0,0-24.536-7.314-20.579-36.677c0,0-13.814,41.167,10.123,56.895
	c0,0-33.123-3.432-29.979-28.454c0,0-13.753,21.633,4.561,33.511c0.411,0.262,0.835,0.526,1.281,0.782
	c0,0-17.689-1.794-18.726-12.129c0,0-6.434,4.492-5.534,15.275c0,0-0.08,0.208-0.211,0.574c3.356,3.696,6.476,9.664,6.547,14.83
	c3.188-2,7.762-3.485,14.328-3.725c0,0-0.448,5.845-7.637,12.133c0,0,26.058-2.7,31.452-15.278c0,0,10.239-2.544,7.744,13.986
	c7.765-1.643,15.436-5.157,20.756-11.116c0.063-0.175,0.142-0.356,0.198-0.527c0.19-0.605,0.602-0.955,1.069-1.11
	c0.334-1.674,0.461-3.431,0.334-5.273l7.636,1.797c0,0-0.09,0.449-0.148,1.197c0.149,0.039,0.299,0.098,0.438,0.196
	c3.498,2.454,6.361,6.255,10.176,8.169c3.818,1.922,7.849,5.01,12.122,6.054c-4.425-4.611-8.74-10.848-4.615-14.717
	c0,0,4.044,7.635,13.931,5.837c0,0-14.38-8.987,1.347-14.821c0,0,10.781,4.939,13.928-13.031c0,0,2.739,3.781,4.475,8.918
	c4.575-6.427,5.207-14.868,5.308-22.646C244.193,334.475,243.783,333.66,243.33,332.83z"/>
<path fill="#ED8A2D" d="M153.798,266.155c0,0-32.672,2.882-28.182,29.834c0,0-9.384-20.22-0.423-25.607
	c0,0-31.026,34.141-9.909,52.115c0,0-21.464-5.842-7.363-35.939l-4.798,3.142c0,0,1.377-13.027,13.959-19.77
	c0,0-4.044-5.836-11.682,0.452c0,0,11.975-12.58,23.06-11.684c0,0-0.456-2.693-11.085-0.896c0,0,12.618-13.104,20.989-8.802
	c0,0-2.821,14.046,0.28,14.275C141.749,263.5,147.826,261.073,153.798,266.155z"/>
<path fill="none" stroke="#000000" stroke-width="2.1149" stroke-miterlimit="10" d="M162.008,271.281
	c0,0-10.714-11.101-23.363-8.006c0,0-5.61-16.955,8.987-26.59l5.389-13.029l-17.969,9.431c0,0-7.123-2.73-13.029,0.452
	c0,0,12.285,3.999,0,9.769c-12.288,5.771-11.68,18.088-11.68,18.088s-19.013,7.032-8.986,28.751c0,0-5.031,1.772-0.9,6.291
	c0,0-10.136,0.137-15.767,15.192c0,0,14.93-2.048,15.767,0.536c0,0-17.027,16.581-9.433,34.594c0,0,3.977-13.47,7.638-13.478
	c0,0-0.642,17.611,2.941,24.367c3.586,6.758,10.492,19.377,10.134,21.588c0,0,11.384-3.854,14.16-2.777
	c0,0-4.745,10.587-7.47,11.186c0,0,30.835-2.743,31.452-15.278c0,0,9.726-1.693,7.744,13.986c0,0,22.815-5.007,22.357-18.027
	l7.487,2.994c0,0,18.624,14.597,22.735,14.419c0,0-8.604-9.907-4.615-14.717c0,0,8.842,8.863,13.931,5.837
	c0,0-14.13-8.708,1.347-14.821c0,0,13.76,4.067,13.928-13.031c0,0,4.521,5.158,4.475,8.918c0,0,9.609-13.805,4.062-25.095
	c0,0-0.19-18.987,6.289-22.242c0,0,6.581,6.349,1.797,12.354c0,0,11.702-5.906,6.341-27.534c0,0,1.508-12.302,10.735-16.039
	c0,0,10.893-8.59,10.78-12.132c0,0-7.671-4.318-8.778-3.957c-1.108,0.36-12.398,13.07-11.439,3.552c0,0-7.687,13.129-9.129,13.331
	c-1.442,0.207-4.254-5.08-8.92,8.473c0,0-0.835,6.562-6.663,6.458c0,0-5.897,5.256-8.138,5.554c0,0-21.926,3.166-25.558,6.574
	c0,0-9.806-7.267-9.855-11.813l-0.141-10.156c0,0-19.842-17.433-26.397-13.524c0,0,30.406,28.953,3.082,36.877
	c0,0-20.273-7.625-8.471-17.104l-9.886-5.536c0,0-1.006,8.516-4.637,10.079c-3.632,1.566-13.937,3.547-14.906-5.34
	c-0.968-8.891,13.158-15.424,13.158-15.424S152.634,270.277,162.008,271.281z"/>
</svg>
